HIERARCHY
ROOT ui
{
	 OFFSET 0 0 0
	 CHANNELS 3 XPosition YPosition Z Position
	 EndSite
	 {
	 OFFSET 0 -1 0
	 }
}
ROOT li
{
	 OFFSET 0 0 0
	 CHANNELS 3 XPosition YPosition Z Position
	 EndSite
	 {
	 OFFSET 0 -1 0
	 }
}
ROOT ul
{
	 OFFSET 0 0 0
	 CHANNELS 3 XPosition YPosition Z Position
	 EndSite
	 {
	 OFFSET 0 -1 0
	 }
}
ROOT ll
{
	 OFFSET 0 0 0
	 CHANNELS 3 XPosition YPosition Z Position
	 EndSite
	 {
	 OFFSET 0 -1 0
	 }
}
ROOT tt
{
	 OFFSET 0 0 0
	 CHANNELS 3 XPosition YPosition Z Position
	 EndSite
	 {
	 OFFSET 0 -1 0
	 }
}
ROOT tb
{
	 OFFSET 0 0 0
	 CHANNELS 3 XPosition YPosition Z Position
	 EndSite
	 {
	 OFFSET 0 -1 0
	 }
}
ROOT td
{
	 OFFSET 0 0 0
	 CHANNELS 3 XPosition YPosition Z Position
	 EndSite
	 {
	 OFFSET 0 -1 0
	 }
}
ROOT v
{
	 OFFSET 0 0 0
	 CHANNELS 3 XPosition YPosition Z Position
	 EndSite
	 {
	 OFFSET 0 -1 0
	 }
}
ROOT bn
{
	 OFFSET 0 0 0
	 CHANNELS 3 XPosition YPosition Z Position
	 EndSite
	 {
	 OFFSET 0 -1 0
	 }
}
MOTION
Frames: 27
Frame Time: 0.002
-0.06693294525146484	-0.0015949649810791016	0		0.4280009765625	-2.422211669921875	0		-1.1156466064453125	-0.07502913665771484	0		-0.7788666381835937	-2.402198974609375	0		1.8127470703125	-1.2507979736328125	0		3.277890869140625	-0.5841387329101563	0		4.7838046875	-0.2684790649414063	0		5.9687998046875	0.5456671142578124	0		-0.441656005859375	5.8390673828125	0		
0.011520780563354493	-0.003601938009262085	0		0.42821847534179686	-2.4225498046875	0		-1.148149658203125	-0.07090433502197266	0		-0.8515978393554687	-2.39673974609375	0		1.8129188232421876	-1.269277587890625	0		3.314935791015625	-0.6241094970703125	0		4.82107568359375	-0.2875335693359375	0		5.96563818359375	0.5614662475585938	0		-0.426497802734375	5.84868896484375	0		
0.01197282600402832	-0.003918628931045532	0		0.4284219665527344	-2.422909423828125	0		-1.1436766357421875	-0.0681393051147461	0		-0.7836466064453125	-2.424600830078125	0		1.8210445556640624	-1.2908531494140625	0		3.295408935546875	-0.6155794677734375	0		4.81744287109375	-0.2942349853515625	0		5.97672509765625	0.575177490234375	0		-0.4103424072265625	5.85927685546875	0		
0.015455374717712403	-2.8347501158714297E-4	0		0.4286232604980469	-2.42328759765625	0		-1.1392005615234375	-0.06439717864990234	0		-0.7943695068359375	-2.416753662109375	0		1.8271239013671876	-1.31642724609375	0		3.319489501953125	-0.6484714965820313	0		4.82378271484375	-0.30304110717773436	0		5.97506494140625	0.6133831176757812	0		-0.37526123046875	5.863662109375	0		
0.012860665321350098	-0.004608664035797119	0		0.42276544189453125	-2.4306240234375	0		-1.0979368896484376	-0.08302911376953125	0		-0.784093994140625	-2.410124755859375	0		1.8532574462890625	-1.3362034912109375	0		3.33888818359375	-0.6473265380859375	0		4.83905322265625	-0.3189351501464844	0		5.9730458984375	0.5599144287109376	0		-0.375240478515625	5.86435546875	0		
0.01634136199951172	-0.0010056129693984985	0		0.4209668273925781	-2.43301025390625	0		-1.1264234619140625	-0.07501687622070312	0		-0.7931116943359375	-2.435332275390625	0		1.859346923828125	-1.3607962646484375	0		3.345021240234375	-0.6740550537109375	0		4.85618701171875	-0.348842529296875	0		5.9705625	0.5705021362304687	0		-0.3752518310546875	5.8650322265625	0		
0.01374282169342041	-0.005355035781860352	0		0.4191811828613281	-2.43540380859375	0		-1.1100582275390625	-0.08245352172851562	0		-0.7740537719726562	-2.45382568359375	0		1.8654287109375	-1.386388427734375	0		3.34236572265625	-0.67868701171875	0		4.86151025390625	-0.35862078857421875	0		5.97088232421875	0.5689642944335938	0		-0.39327401733398437	5.86887109375	0		
0.01721328353881836	-0.0017691550254821777	0		0.39649386596679687	-2.42859521484375	0		-1.0996429443359375	-0.0838487548828125	0		-0.7717926025390625	-2.4521689453125	0		1.8834979248046875	-1.4130914306640625	0		3.3664306640625	-0.7115628662109375	0		4.862943359375	-0.35633685302734375	0		5.97846044921875	0.6001917114257812	0		-0.39040679931640626	5.86649853515625	0		
0.020656454086303712	8.154100179672241E-4	0		0.4216883544921875	-2.434253173828125	0		-1.101156005859375	-0.07613749694824219	0		-0.766697265625	-2.46754833984375	0		1.8817840576171876	-1.4165870361328126	0		3.371814697265625	-0.7102308959960938	0		4.88712451171875	-0.3782463073730469	0		5.9773486328125	0.6022938842773438	0		-0.39156509399414063	5.86816064453125	0		
0.013048772811889648	0.0015134409666061402	0		0.41685235595703124	-2.441609130859375	0		-1.098858154296875	-0.08446955108642579	0		-0.736556884765625	-2.47717822265625	0		1.9097509765625	-1.4503580322265626	0		3.36390576171875	-0.7357365112304688	0		4.8874833984375	-0.3788822937011719	0		5.971771484375	0.5648070678710938	0		-0.3577565612792969	5.8744775390625	0		
0.013380715370178223	0.0011430039405822753	0		0.4410050354003906	-2.447239501953125	0		-1.0985306396484376	-0.0847816162109375	0		-0.74241455078125	-2.48344921875	0		1.9187969970703125	-1.4719166259765626	0		3.37801904296875	-0.7544214477539063	0		4.90756494140625	-0.4026700134277344	0		5.96487939453125	0.5637922973632813	0		-0.3911644592285156	5.86946533203125	0		
-0.06242455291748047	-0.005450685977935791	0		0.42384930419921873	-2.47844140625	0		-1.0982734375	-0.08508755493164062	0		-0.7145540771484375	-2.513049560546875	0		1.9277728271484376	-1.49444384765625	0		3.392955810546875	-0.784072265625	0		4.91371826171875	-0.4122680969238281	0		5.96157373046875	0.5801090698242187	0		-0.3916361999511719	5.870138671875	0		
0.013812199592590332	4.550119936466217E-4	0		0.4608199462890625	-2.49016015625	0		-1.080056640625	-0.08056266784667969	0		-0.7524603271484375	-2.5119755859375	0		1.9417291259765626	-1.5109844970703126	0		3.4211875	-0.7758065185546875	0		4.919783203125	-0.4218094482421875	0		5.9724609375	0.5944746704101562	0		-0.3902686462402344	5.8688095703125	0		
-0.06805770111083985	0.006974399089813232	0		0.45090948486328125	-2.481378173828125	0		-1.079993408203125	-0.08083928680419922	0		-0.7136658935546875	-2.53265283203125	0		1.94361279296875	-1.5253619384765624	0		3.4197890625	-0.820192138671875	0		4.93182666015625	-0.4233497009277344	0		5.9796416015625	0.593490478515625	0		-0.3900450134277344	5.86851416015625	0		
0.013830202102661133	-1.242460012435913E-4	0		0.48162197875976565	-2.50097119140625	0		-1.084072509765625	-0.08405134582519531	0		-0.7129428100585937	-2.55092138671875	0		1.9433651123046876	-1.542670654296875	0		3.452734619140625	-0.8198624267578125	0		4.9525380859375	-0.4469129943847656	0		5.9695380859375	0.5723070678710938	0		-0.39097186279296875	5.8692587890625	0		
-0.06826689147949219	0.006468460083007812	0		0.45042413330078124	-2.5018984375	0		-1.0842352294921875	-0.08427452087402344	0		-0.643408935546875	-2.578854248046875	0		1.9689122314453125	-1.570188232421875	0		3.424403564453125	-0.8358517456054687	0		4.94240234375	-0.44409384155273435	0		5.9743291015625	0.55090478515625	0		-0.3910693664550781	5.86902783203125	0		
0.013397554397583007	-5.525609850883484E-4	0		0.4580334167480469	-2.51317333984375	0		-1.06453759765625	-0.08766584777832032	0		-0.7018975830078125	-2.5994580078125	0		1.9634949951171874	-1.584336669921875	0		3.432028564453125	-0.8461365966796875	0		4.95088671875	-0.468390869140625	0		5.97064208984375	0.5679223022460937	0		-0.42537933349609375	5.86318017578125	0		
-0.051926319122314456	0.003956171989440918	0		0.45969619750976565	-2.51133935546875	0		-1.05279443359375	-0.07693954467773438	0		-0.6175719604492188	-2.63146533203125	0		1.984890380859375	-1.6086971435546875	0		3.459380126953125	-0.8745515747070313	0		4.9653994140625	-0.4806719970703125	0		5.98042919921875	0.5830341186523438	0		-0.37562188720703127	5.87752490234375	0		
0.019653642654418945	0.0061296820640563965	0		0.45725814819335936	-2.5134130859375	0		-1.0492100830078126	-0.07409144592285156	0		-0.6691171264648438	-2.644056640625	0		1.989350830078125	-1.6198238525390625	0		3.46308447265625	-0.860652587890625	0		4.9810078125	-0.47588442993164065	0		5.98010986328125	0.5829812622070313	0		-0.3420766906738281	5.883078125	0		
0.019149316787719726	0.006080678939819336	0		0.450730224609375	-2.520393310546875	0		-1.061611572265625	-0.06403987121582032	0		-0.60004931640625	-2.691821044921875	0		2.016633544921875	-1.6441171875	0		3.4462646484375	-0.8934751586914063	0		4.98034130859375	-0.49285379028320314	0		5.97319384765625	0.55037744140625	0		-0.392838134765625	5.8685263671875	0		
0.011538581848144531	-8.46871018409729E-4	0		0.44720278930664065	-2.525350341796875	0		-1.062150634765625	-0.06406521606445313	0		-0.6057933349609375	-2.718783203125	0		2.005074462890625	-1.6499544677734375	0		3.47068505859375	-0.89963818359375	0		4.99469189453125	-0.5048951110839843	0		5.9585498046875	0.5527190551757812	0		-0.3935260925292969	5.86851806640625	0		
0.006030063152313233	0.004254889965057373	0		0.4556419372558594	-2.53337451171875	0		-1.0546378173828126	-0.05712714004516602	0		-0.5985984497070312	-2.751828857421875	0		2.0232955322265624	-1.6770294189453125	0		3.474023681640625	-0.9125180053710937	0		4.99211865234375	-0.5076897277832031	0		5.96724951171875	0.5113886413574219	0		-0.428325927734375	5.86289794921875	0		
0.005467915058135987	0.004355855941772461	0		0.4650822448730469	-2.5423564453125	0		-1.047128173828125	-0.05014510345458984	0		-0.5992693481445313	-2.772748779296875	0		2.02582470703125	-1.673884765625	0		3.494553955078125	-0.9065001220703125	0		5.00339501953125	-0.5255509643554688	0		5.9704775390625	0.5274265747070312	0		-0.37994497680664063	5.87849365234375	0		
0.016934804916381836	0.0063847341537475585	0		0.49949462890625	-2.556536376953125	0		-1.0355697021484376	-0.03916032028198242	0		-0.5900150756835938	-2.8037236328125	0		2.022312255859375	-1.676622802734375	0		3.484811279296875	-0.9291166381835938	0		5.00894384765625	-0.5172845458984375	0		5.966451171875	0.5126316528320313	0		-0.39583956909179685	5.868775390625	0		
0.009333836555480956	-3.527030050754547E-4	0		0.4851301879882812	-2.551182861328125	0		-1.0420499267578125	-0.03395649337768555	0		-0.5586868896484375	-2.83087353515625	0		2.05263818359375	-1.6986434326171875	0		3.520379638671875	-0.9231209716796875	0		5.008435546875	-0.5168947143554687	0		5.96607080078125	0.5134417724609375	0		-0.3625926818847656	5.87361279296875	0		
0.008830363273620606	-1.1968400329351425E-4	0		0.5175940551757813	-2.567250244140625	0		-1.0385125732421876	-0.029815122604370116	0		-0.5293369140625	-2.85996240234375	0		2.052218994140625	-1.69830908203125	0		3.50288330078125	-0.9265465087890625	0		5.0248388671875	-0.5286154174804687	0		5.96570849609375	0.5143601684570313	0		-0.41154232788085937	5.85830029296875	0		
0.008360349655151367	1.4934299886226653E-4	0		0.4622905578613281	-2.56341650390625	0		-1.0349517822265626	-0.026640260696411133	0		-0.5209805297851563	-2.89280810546875	0		2.051837890625	-1.69793310546875	0		3.49654052734375	-0.9180360717773437	0		5.02542578125	-0.5251301879882813	0		5.9709794921875	0.49101605224609374	0		-0.4264164733886719	5.84868505859375	0		
